<svg width="97" height="17" xmlns="http://www.w3.org/2000/svg"><g id="Artboard" stroke="none" stroke-width="1" fill="#FFBD03" fill-rule="nonzero"><g id="icons8-Material-Rounded-85185-50-5fcd3a" transform="translate(2 2)"><path d="m7.5 11.679 3.748 2.21c.591.347 1.321-.17 1.164-.827l-.994-4.166 3.31-2.803c.524-.44.244-1.278-.443-1.336l-4.36-.36L8.217.464c-.268-.62-1.168-.62-1.436 0L5.076 4.396l-4.36.36c-.688.059-.968.896-.445 1.337l3.311 2.803-.994 4.166c-.157.656.573 1.174 1.164.826l3.748-2.21Z" id="Path"/></g><g id="icons8-Material-Rounded-85185-50-5fcd3a" transform="translate(21 2)"><path d="m8 11.679 3.998 2.21c.63.347 1.409-.17 1.241-.827l-1.06-4.166 3.532-2.803c.558-.44.26-1.278-.474-1.336l-4.651-.36L8.766.464c-.286-.62-1.246-.62-1.532 0l-1.82 3.931-4.65.36C.03 4.816-.27 5.653.288 6.094l3.532 2.803-1.06 4.166c-.168.656.61 1.174 1.241.826L8 11.678Z" id="Path"/></g><g id="icons8-Material-Rounded-85185-50-5fcd3a" transform="translate(41 2)"><path d="m7.5 11.679 3.748 2.21c.591.347 1.321-.17 1.164-.827l-.994-4.166 3.31-2.803c.524-.44.244-1.278-.443-1.336l-4.36-.36L8.217.464c-.268-.62-1.168-.62-1.436 0L5.076 4.396l-4.36.36c-.688.059-.968.896-.445 1.337l3.311 2.803-.994 4.166c-.157.656.573 1.174 1.164.826l3.748-2.21Z" id="Path"/></g><g id="icons8-Material-Rounded-85185-50-5fcd3a" transform="translate(60 2)"><path d="m8 11.679 3.998 2.21c.63.347 1.409-.17 1.241-.827l-1.06-4.166 3.532-2.803c.558-.44.26-1.278-.474-1.336l-4.651-.36L8.766.464c-.286-.62-1.246-.62-1.532 0l-1.82 3.931-4.65.36C.03 4.816-.27 5.653.288 6.094l3.532 2.803-1.06 4.166c-.168.656.61 1.174 1.241.826L8 11.678Z" id="Path"/></g><g id="icons8-Material-Rounded-85185-50-5fcd3a" transform="translate(80 2)"><path d="m7.5 11.679 3.748 2.21c.591.347 1.321-.17 1.164-.827l-.994-4.166 3.31-2.803c.524-.44.244-1.278-.443-1.336l-4.36-.36L8.217.464c-.268-.62-1.168-.62-1.436 0L5.076 4.396l-4.36.36c-.688.059-.968.896-.445 1.337l3.311 2.803-.994 4.166c-.157.656.573 1.174 1.164.826l3.748-2.21Z" id="Path"/></g></g></svg>